<svg id="Capa_1" data-name="Capa 1" xmlns="http://www.w3.org/2000/svg" xmlns:xlink="http://www.w3.org/1999/xlink" viewBox="0 0 768 768"><defs><style>.cls-1{fill:#fff;}.cls-2,.cls-3,.cls-4{fill:none;stroke-miterlimit:10;stroke-width:2px;}.cls-2{stroke:url(#Degradado_sin_nombre_2156);}.cls-3{stroke:url(#Degradado_sin_nombre_2156-2);}.cls-4{stroke:url(#Degradado_sin_nombre_2156-3);}</style><linearGradient id="Degradado_sin_nombre_2156" x1="193.38" y1="299.19" x2="286.56" y2="460.58" gradientUnits="userSpaceOnUse"><stop offset="0" stop-color="aqua"/><stop offset="0.99" stop-color="#f0f"/></linearGradient><linearGradient id="Degradado_sin_nombre_2156-2" x1="381.98" y1="324.19" x2="448.12" y2="438.74" xlink:href="#Degradado_sin_nombre_2156"/><linearGradient id="Degradado_sin_nombre_2156-3" x1="531.98" y1="324.19" x2="598.12" y2="438.74" xlink:href="#Degradado_sin_nombre_2156"/></defs><title>SVGMesa de trabajo 14 copia 3</title><rect x="-28.49" y="-28.49" width="824.98" height="824.98"/><path class="cls-1" d="M203.32,485.19h3l3.32,9.41h0l3.24-9.41h2.93v12h-2v-9.27h0l-3.33,9.27h-1.74l-3.33-9.27h0v9.27h-2Z"/><path class="cls-1" d="M228.27,485.19h2.24l4.63,12h-2.26L231.75,494H227l-1.13,3.18h-2.17Zm-.74,7.24h3.67l-1.8-5.17h-.05Z"/><path class="cls-1" d="M253.5,497.21h-1.34l-.32-1.41a4.34,4.34,0,0,1-3.62,1.7c-3.61,0-5.76-2.86-5.76-6.3s2.15-6.29,5.76-6.29c2.62,0,4.83,1.39,5.15,4.1h-2.06a2.86,2.86,0,0,0-3.09-2.39c-2.58,0-3.66,2.28-3.66,4.58s1.08,4.58,3.66,4.58a3,3,0,0,0,3.36-3.3h-3.19v-1.6h5.11Z"/><path class="cls-1" d="M262.52,485.19h5c3.7,0,5.3,2.7,5.3,6s-1.6,6-5.3,6h-5Zm2.11,10.31h2.07c3.3,0,4-1.89,4-4.3s-.71-4.29-4-4.29h-2.07Z"/><path class="cls-1" d="M284.63,485.19h2.24l4.63,12h-2.26L288.11,494h-4.8l-1.12,3.18H280Zm-.74,7.24h3.67l-1.81-5.17h-.05Z"/><path class="cls-1" d="M299.37,485.19h2.11V495.4h6.11v1.81h-8.22Z"/><path class="cls-1" d="M315.77,485.19h8.65V487h-6.55v3.15h6.06v1.72h-6.06v3.52h6.67v1.81h-8.77Z"/><path class="cls-1" d="M333,485.19h2.22l5.49,8.86h0v-8.86h2v12h-2.22l-5.47-8.84H335v8.84h-2Z"/><path class="cls-1" d="M355.21,485.19h2.24l4.63,12h-2.26L358.69,494H353.9l-1.13,3.18H350.6Zm-.74,7.24h3.67l-1.8-5.17h0Z"/><path class="cls-1" d="M382.43,493.21c0,1.85,1.36,2.57,3,2.57,1.85,0,2.54-.91,2.54-1.82a1.43,1.43,0,0,0-1-1.48c-.84-.32-1.93-.54-3.58-1-2.06-.56-2.66-1.8-2.66-3.05,0-2.41,2.22-3.53,4.39-3.53,2.51,0,4.61,1.33,4.61,3.83h-2.1c-.1-1.54-1.15-2.12-2.59-2.12-1,0-2.21.36-2.21,1.57,0,.84.57,1.31,1.43,1.55.19.05,2.85.74,3.47.92a3.19,3.19,0,0,1,2.34,3.07c0,2.69-2.39,3.77-4.78,3.77-2.75,0-5-1.31-5-4.29Z"/><path class="cls-1" d="M409.56,491.2c0,3.44-2.15,6.3-5.75,6.3s-5.76-2.86-5.76-6.3,2.15-6.29,5.76-6.29S409.56,487.77,409.56,491.2Zm-9.41,0c0,2.31,1.08,4.58,3.66,4.58s3.65-2.27,3.65-4.58-1.08-4.58-3.65-4.58S400.15,488.9,400.15,491.2Z"/><path class="cls-1" d="M418.08,485.19h2.1v7c0,1.61.1,3.48,2.83,3.48s2.83-1.87,2.83-3.48v-7h2.1v7.7c0,3.08-2,4.61-4.93,4.61s-4.93-1.53-4.93-4.61Z"/><path class="cls-1" d="M437,485.19h2.22l5.49,8.86h0v-8.86h2v12h-2.22l-5.47-8.84H439v8.84h-2Z"/><path class="cls-1" d="M456,485.19h5c3.7,0,5.3,2.7,5.3,6s-1.6,6-5.3,6h-5Zm2.1,10.31h2.07c3.3,0,4-1.89,4-4.3s-.71-4.29-4-4.29h-2.07Z"/><path class="cls-1" d="M486.83,493.21c0,1.85,1.36,2.57,3,2.57,1.86,0,2.55-.91,2.55-1.82a1.44,1.44,0,0,0-1-1.48c-.84-.32-1.93-.54-3.58-1-2.06-.56-2.66-1.8-2.66-3.05,0-2.41,2.22-3.53,4.39-3.53,2.51,0,4.61,1.33,4.61,3.83h-2.1c-.1-1.54-1.15-2.12-2.59-2.12-1,0-2.21.36-2.21,1.57,0,.84.57,1.31,1.43,1.55.19.05,2.85.74,3.47.92a3.19,3.19,0,0,1,2.34,3.07c0,2.69-2.39,3.77-4.78,3.77-2.75,0-5-1.31-5-4.29Z"/><path class="cls-1" d="M501.94,485.19h9.73V487h-3.82v10.2h-2.1V487h-3.81Z"/><path class="cls-1" d="M519.67,485.19h2.1v7c0,1.61.1,3.48,2.83,3.48s2.83-1.87,2.83-3.48v-7h2.1v7.7c0,3.08-2,4.61-4.93,4.61s-4.93-1.53-4.93-4.61Z"/><path class="cls-1" d="M538.69,485.19h5c3.71,0,5.31,2.7,5.31,6s-1.6,6-5.31,6h-5Zm2.1,10.31h2.08c3.29,0,4-1.89,4-4.3s-.71-4.29-4-4.29h-2.08Z"/><path class="cls-1" d="M557.58,485.19h2.1v12h-2.1Z"/><path class="cls-1" d="M579.87,491.2c0,3.44-2.16,6.3-5.76,6.3s-5.76-2.86-5.76-6.3,2.16-6.29,5.76-6.29S579.87,487.77,579.87,491.2Zm-9.41,0c0,2.31,1.07,4.58,3.65,4.58s3.65-2.27,3.65-4.58-1.08-4.58-3.65-4.58S570.46,488.9,570.46,491.2Z"/><path class="cls-2" d="M274.06,439.17V363.58l-20,75.59H218.33l-22.82-75.59v75.59H159V320.6h65.22l14.82,52,15-52H320.9V439.17Z"/><path class="cls-3" d="M416.64,442.14c-31.72,0-58.69-15-58.69-40.61h36.9c1.49,11.26,15.12,13.63,21.35,13.63,8.45,0,16.15-2.07,16.15-6.82,0-14.82-72.48-3.4-72.48-49.5,0-20,19.12-41.21,55.88-41.21,31,0,53.66,16.31,53.66,38.24H433.83c-1.48-11.26-11.56-13.78-17.78-13.78-8.45,0-14.53,2.22-14.53,6.82,0,5.63,9,7.85,20.61,10.37,21.49,4.6,52,12.45,52,40.47C474.15,421.83,458.74,442.14,416.64,442.14Z"/><path class="cls-4" d="M566.63,442.14c-31.71,0-58.69-15-58.69-40.61h36.91c1.48,11.26,15.11,13.63,21.34,13.63,8.45,0,16.16-2.07,16.16-6.82,0-14.82-72.48-3.4-72.48-49.5,0-20,19.12-41.21,55.88-41.21,31,0,53.65,16.31,53.65,38.24H583.83c-1.48-11.26-11.56-13.78-17.79-13.78-8.45,0-14.52,2.22-14.52,6.82,0,5.63,9,7.85,20.6,10.37,21.49,4.6,52,12.45,52,40.47C624.14,421.83,608.73,442.14,566.63,442.14Z"/></svg>